<svg width="200" height="120" viewBox="0 0 200 120" fill="none" xmlns="http://www.w3.org/2000/svg">
  <!-- Background -->
  <rect width="200" height="120" fill="#f8fafc" rx="8"/>
  
  <!-- Central AI Brain -->
  <g transform="translate(100, 60)">
    <!-- Brain Circle -->
    <circle cx="0" cy="0" r="25" fill="#3b82f6" opacity="0.8"/>
    <circle cx="0" cy="0" r="20" fill="#1e40af" opacity="0.9"/>
    
    <!-- Brain Features -->
    <circle cx="-8" cy="-8" r="3" fill="white"/>
    <circle cx="8" cy="-8" r="3" fill="white"/>
    <path d="M -10 8 Q 0 15 10 8" stroke="white" stroke-width="2" fill="none"/>
    
    <!-- Neural Network Lines -->
    <g opacity="0.6">
      <path d="M -15 -15 L -25 -25" stroke="white" stroke-width="1.5"/>
      <path d="M 15 -15 L 25 -25" stroke="white" stroke-width="1.5"/>
      <path d="M -15 15 L -25 25" stroke="white" stroke-width="1.5"/>
      <path d="M 15 15 L 25 25" stroke="white" stroke-width="1.5"/>
      
      <!-- Neural Nodes -->
      <circle cx="-25" cy="-25" r="2" fill="white"/>
      <circle cx="25" cy="-25" r="2" fill="white"/>
      <circle cx="-25" cy="25" r="2" fill="white"/>
      <circle cx="25" cy="25" r="2" fill="white"/>
    </g>
    
    <!-- Pulsing Animation -->
    <circle cx="0" cy="0" r="30" fill="none" stroke="#3b82f6" stroke-width="2" opacity="0.3">
      <animate attributeName="r" values="30;35;30" dur="2s" repeatCount="indefinite"/>
      <animate attributeName="opacity" values="0.3;0.1;0.3" dur="2s" repeatCount="indefinite"/>
    </circle>
  </g>
  
  <!-- Processing Documents -->
  <g opacity="0.7">
    <!-- Left Document -->
    <g transform="translate(30, 40)">
      <rect x="0" y="0" width="20" height="25" fill="#10b981" rx="2"/>
      <rect x="3" y="5" width="14" height="1" fill="white" rx="0.5"/>
      <rect x="3" y="8" width="10" height="1" fill="white" rx="0.5"/>
      <rect x="3" y="11" width="12" height="1" fill="white" rx="0.5"/>
      
      <!-- Processing Lines -->
      <path d="M 20 12 Q 40 12 60 12" stroke="#3b82f6" stroke-width="2" stroke-dasharray="3,2">
        <animate attributeName="stroke-dashoffset" values="0;-10" dur="1.5s" repeatCount="indefinite"/>
      </path>
    </g>
    
    <!-- Right Document -->
    <g transform="translate(150, 55)">
      <rect x="0" y="0" width="20" height="25" fill="#8b5cf6" rx="2"/>
      <rect x="3" y="5" width="14" height="1" fill="white" rx="0.5"/>
      <rect x="3" y="8" width="10" height="1" fill="white" rx="0.5"/>
      <rect x="3" y="11" width="12" height="1" fill="white" rx="0.5"/>
      
      <!-- Processing Lines -->
      <path d="M 0 12 Q -20 12 -40 12" stroke="#3b82f6" stroke-width="2" stroke-dasharray="3,2">
        <animate attributeName="stroke-dashoffset" values="0;-10" dur="1.5s" repeatCount="indefinite"/>
      </path>
    </g>
  </g>
  
  <!-- Analysis Indicators -->
  <g opacity="0.5">
    <!-- Scanning Lines -->
    <rect x="0" y="20" width="200" height="2" fill="#3b82f6" opacity="0.3">
      <animate attributeName="y" values="20;100;20" dur="3s" repeatCount="indefinite"/>
    </rect>
    
    <!-- Progress Dots -->
    <circle cx="50" cy="100" r="2" fill="#10b981">
      <animate attributeName="opacity" values="0.3;1;0.3" dur="1s" repeatCount="indefinite"/>
    </circle>
    <circle cx="100" cy="100" r="2" fill="#3b82f6">
      <animate attributeName="opacity" values="0.3;1;0.3" dur="1s" begin="0.3s" repeatCount="indefinite"/>
    </circle>
    <circle cx="150" cy="100" r="2" fill="#8b5cf6">
      <animate attributeName="opacity" values="0.3;1;0.3" dur="1s" begin="0.6s" repeatCount="indefinite"/>
    </circle>
  </g>
</svg>