<svg width="1920" height="1080" viewBox="0 0 1920 1080" fill="none" xmlns="http://www.w3.org/2000/svg">
  <defs>
    <linearGradient id="dashboardGradient" x1="0%" y1="0%" x2="100%" y2="100%">
      <stop offset="0%" style="stop-color:#fefefe;stop-opacity:1" />
      <stop offset="100%" style="stop-color:#f1f5f9;stop-opacity:1" />
    </linearGradient>
    
    <!-- Dashboard analytics pattern -->
    <pattern id="analyticsPattern" x="0" y="0" width="240" height="240" patternUnits="userSpaceOnUse">
      <rect width="240" height="240" fill="transparent"/>
      <g opacity="0.03">
        <!-- Chart bars -->
        <rect x="40" y="120" width="12" height="40" fill="#3b82f6"/>
        <rect x="56" y="100" width="12" height="60" fill="#10b981"/>
        <rect x="72" y="110" width="12" height="50" fill="#f59e0b"/>
        <rect x="88" y="90" width="12" height="70" fill="#ef4444"/>
        <rect x="104" y="105" width="12" height="55" fill="#8b5cf6"/>
        
        <!-- Pie chart -->
        <circle cx="160" cy="80" r="25" fill="none" stroke="#3b82f6" stroke-width="4" stroke-dasharray="40 60"/>
        <circle cx="160" cy="80" r="25" fill="none" stroke="#10b981" stroke-width="4" stroke-dasharray="30 70" transform="rotate(144 160 80)"/>
        <circle cx="160" cy="80" r="25" fill="none" stroke="#f59e0b" stroke-width="4" stroke-dasharray="20 80" transform="rotate(252 160 80)"/>
        
        <!-- Line graph -->
        <polyline points="50,180 70,170 90,160 110,175 130,155 150,165 170,150" 
                  fill="none" stroke="#8b5cf6" stroke-width="2"/>
        <polyline points="50,190 70,185 90,175 110,180 130,170 150,175 170,165" 
                  fill="none" stroke="#06b6d4" stroke-width="2"/>
        
        <!-- Metric indicators -->
        <circle cx="200" cy="140" r="3" fill="#22c55e">
          <animate attributeName="opacity" values="0.3;1;0.3" dur="2s" repeatCount="indefinite"/>
        </circle>
        <circle cx="210" cy="150" r="3" fill="#f59e0b">
          <animate attributeName="opacity" values="0.3;1;0.3" dur="2.5s" begin="0.5s" repeatCount="indefinite"/>
        </circle>
        <circle cx="220" cy="160" r="3" fill="#ef4444">
          <animate attributeName="opacity" values="0.3;1;0.3" dur="3s" begin="1s" repeatCount="indefinite"/>
        </circle>
      </g>
    </pattern>
    
    <!-- Risk heatmap pattern -->
    <pattern id="riskPattern" x="0" y="0" width="100" height="100" patternUnits="userSpaceOnUse">
      <g opacity="0.02">
        <rect x="10" y="10" width="15" height="15" fill="#22c55e"/>
        <rect x="30" y="10" width="15" height="15" fill="#f59e0b"/>
        <rect x="50" y="10" width="15" height="15" fill="#ef4444"/>
        <rect x="70" y="10" width="15" height="15" fill="#22c55e"/>
        <rect x="10" y="30" width="15" height="15" fill="#f59e0b"/>
        <rect x="30" y="30" width="15" height="15" fill="#22c55e"/>
        <rect x="50" y="30" width="15" height="15" fill="#f59e0b"/>
        <rect x="70" y="30" width="15" height="15" fill="#ef4444"/>
        <rect x="10" y="50" width="15" height="15" fill="#ef4444"/>
        <rect x="30" y="50" width="15" height="15" fill="#f59e0b"/>
        <rect x="50" y="50" width="15" height="15" fill="#22c55e"/>
        <rect x="70" y="50" width="15" height="15" fill="#f59e0b"/>
      </g>
    </pattern>
  </defs>
  
  <!-- Base gradient -->
  <rect width="1920" height="1080" fill="url(#dashboardGradient)"/>
  
  <!-- Analytics pattern overlay -->
  <rect width="1920" height="1080" fill="url(#analyticsPattern)"/>
  
  <!-- Risk heatmap overlay -->
  <rect width="1920" height="1080" fill="url(#riskPattern)"/>
  
  <!-- Real-time data flow -->
  <g opacity="0.1">
    <!-- Data streams -->
    <rect x="0" y="150" width="80" height="3" fill="#3b82f6">
      <animateTransform attributeName="transform" type="translate" values="0 0;1920 0;0 0" dur="6s" repeatCount="indefinite"/>
    </rect>
    <rect x="0" y="300" width="60" height="3" fill="#10b981">
      <animateTransform attributeName="transform" type="translate" values="0 0;1920 0;0 0" dur="8s" begin="1s" repeatCount="indefinite"/>
    </rect>
    <rect x="0" y="450" width="70" height="3" fill="#f59e0b">
      <animateTransform attributeName="transform" type="translate" values="0 0;1920 0;0 0" dur="7s" begin="2s" repeatCount="indefinite"/>
    </rect>
    <rect x="0" y="600" width="90" height="3" fill="#ef4444">
      <animateTransform attributeName="transform" type="translate" values="0 0;1920 0;0 0" dur="9s" begin="3s" repeatCount="indefinite"/>
    </rect>
    <rect x="0" y="750" width="75" height="3" fill="#8b5cf6">
      <animateTransform attributeName="transform" type="translate" values="0 0;1920 0;0 0" dur="10s" begin="4s" repeatCount="indefinite"/>
    </rect>
  </g>
  
  <!-- Alert indicators -->
  <g opacity="0.06">
    <circle cx="300" cy="200" r="10" fill="#ef4444">
      <animate attributeName="r" values="8;15;8" dur="3s" repeatCount="indefinite"/>
      <animate attributeName="opacity" values="0.06;0.12;0.06" dur="3s" repeatCount="indefinite"/>
    </circle>
    <circle cx="1400" cy="400" r="8" fill="#f59e0b">
      <animate attributeName="r" values="6;12;6" dur="4s" begin="1s" repeatCount="indefinite"/>
      <animate attributeName="opacity" values="0.06;0.12;0.06" dur="4s" begin="1s" repeatCount="indefinite"/>
    </circle>
    <circle cx="800" cy="700" r="12" fill="#22c55e">
      <animate attributeName="r" values="10;18;10" dur="5s" begin="2s" repeatCount="indefinite"/>
      <animate attributeName="opacity" values="0.06;0.1;0.06" dur="5s" begin="2s" repeatCount="indefinite"/>
    </circle>
  </g>
  
  <!-- Performance metrics grid -->
  <g opacity="0.03" stroke="#64748b" stroke-width="1" fill="none">
    <defs>
      <pattern id="grid" width="50" height="50" patternUnits="userSpaceOnUse">
        <path d="M 50 0 L 0 0 0 50" fill="none" stroke="#64748b" stroke-width="0.5"/>
      </pattern>
    </defs>
    <rect width="1920" height="1080" fill="url(#grid)"/>
  </g>
</svg>
