<svg width="1920" height="800" viewBox="0 0 1920 800" fill="none" xmlns="http://www.w3.org/2000/svg">
  <!-- Background Gradient -->
  <defs>
    <linearGradient id="hero-bg-gradient" x1="0%" y1="0%" x2="100%" y2="100%">
      <stop offset="0%" style="stop-color:#f0f9ff;stop-opacity:1" />
      <stop offset="30%" style="stop-color:#e0f2fe;stop-opacity:1" />
      <stop offset="70%" style="stop-color:#f3e8ff;stop-opacity:1" />
      <stop offset="100%" style="stop-color:#fdf4ff;stop-opacity:1" />
    </linearGradient>
    
    <!-- Animated Gradient for Data Flow -->
    <linearGradient id="data-flow-gradient" x1="0%" y1="0%" x2="100%" y2="0%">
      <stop offset="0%" style="stop-color:#3b82f6;stop-opacity:0" />
      <stop offset="50%" style="stop-color:#3b82f6;stop-opacity:0.8" />
      <stop offset="100%" style="stop-color:#3b82f6;stop-opacity:0" />
      <animateTransform attributeName="gradientTransform" type="translate" values="-200 0;1920 0;-200 0" dur="4s" repeatCount="indefinite"/>
    </linearGradient>
    
    <!-- Pattern for subtle texture -->
    <pattern id="hero-pattern" width="60" height="60" patternUnits="userSpaceOnUse">
      <circle cx="30" cy="30" r="1.5" fill="#e2e8f0" opacity="0.4"/>
      <circle cx="10" cy="10" r="1" fill="#cbd5e1" opacity="0.3"/>
      <circle cx="50" cy="50" r="1" fill="#cbd5e1" opacity="0.3"/>
    </pattern>
  </defs>
  
  <!-- Background -->
  <rect width="1920" height="800" fill="url(#hero-bg-gradient)"/>
  <rect width="1920" height="800" fill="url(#hero-pattern)"/>
  
  <!-- Large Central Document Processing Illustration -->
  <g transform="translate(960, 400)" opacity="0.3">
    <!-- Central Processing Hub -->
    <circle cx="0" cy="0" r="80" fill="#3b82f6" opacity="0.2"/>
    <circle cx="0" cy="0" r="60" fill="#3b82f6" opacity="0.3"/>
    <circle cx="0" cy="0" r="40" fill="#3b82f6" opacity="0.4"/>
    
    <!-- AI Brain Icon -->
    <circle cx="0" cy="0" r="25" fill="#1e40af" opacity="0.6"/>
    <circle cx="-8" cy="-8" r="3" fill="white"/>
    <circle cx="8" cy="-8" r="3" fill="white"/>
    <path d="M -10 8 Q 0 15 10 8" stroke="white" stroke-width="2" fill="none"/>
    
    <!-- Orbiting Documents -->
    <g>
      <animateTransform attributeName="transform" type="rotate" values="0;360" dur="20s" repeatCount="indefinite"/>
      
      <!-- Document 1 -->
      <g transform="translate(120, 0)">
        <rect x="-15" y="-20" width="30" height="40" fill="#10b981" rx="3" opacity="0.8"/>
        <rect x="-10" y="-15" width="20" height="2" fill="white" rx="1"/>
        <rect x="-10" y="-10" width="15" height="2" fill="white" rx="1"/>
        <rect x="-10" y="-5" width="18" height="2" fill="white" rx="1"/>
      </g>
      
      <!-- Document 2 -->
      <g transform="translate(-120, 0)">
        <rect x="-15" y="-20" width="30" height="40" fill="#8b5cf6" rx="3" opacity="0.8"/>
        <rect x="-10" y="-15" width="20" height="2" fill="white" rx="1"/>
        <rect x="-10" y="-10" width="15" height="2" fill="white" rx="1"/>
        <rect x="-10" y="-5" width="18" height="2" fill="white" rx="1"/>
      </g>
      
      <!-- Document 3 -->
      <g transform="translate(0, 120)">
        <rect x="-15" y="-20" width="30" height="40" fill="#f59e0b" rx="3" opacity="0.8"/>
        <rect x="-10" y="-15" width="20" height="2" fill="white" rx="1"/>
        <rect x="-10" y="-10" width="15" height="2" fill="white" rx="1"/>
        <rect x="-10" y="-5" width="18" height="2" fill="white" rx="1"/>
      </g>
      
      <!-- Document 4 -->
      <g transform="translate(0, -120)">
        <rect x="-15" y="-20" width="30" height="40" fill="#ef4444" rx="3" opacity="0.8"/>
        <rect x="-10" y="-15" width="20" height="2" fill="white" rx="1"/>
        <rect x="-10" y="-10" width="15" height="2" fill="white" rx="1"/>
        <rect x="-10" y="-5" width="18" height="2" fill="white" rx="1"/>
      </g>
    </g>
    
    <!-- Data Flow Lines -->
    <g opacity="0.6">
      <path d="M 120 0 L 40 0" stroke="url(#data-flow-gradient)" stroke-width="3"/>
      <path d="M -40 0 L -120 0" stroke="url(#data-flow-gradient)" stroke-width="3"/>
      <path d="M 0 40 L 0 120" stroke="url(#data-flow-gradient)" stroke-width="3"/>
      <path d="M 0 -40 L 0 -120" stroke="url(#data-flow-gradient)" stroke-width="3"/>
    </g>
  </g>
  
  <!-- Floating Analytics Elements -->
  <g opacity="0.25">
    <!-- Left Side Analytics -->
    <g transform="translate(200, 150)">
      <!-- Bar Chart -->
      <rect x="0" y="30" width="8" height="20" fill="#3b82f6" rx="2"/>
      <rect x="12" y="25" width="8" height="25" fill="#3b82f6" rx="2"/>
      <rect x="24" y="20" width="8" height="30" fill="#3b82f6" rx="2"/>
      <rect x="36" y="15" width="8" height="35" fill="#3b82f6" rx="2"/>
      <rect x="48" y="28" width="8" height="22" fill="#3b82f6" rx="2"/>
    </g>
    
    <!-- Right Side Analytics -->
    <g transform="translate(1600, 200)">
      <!-- Pie Chart -->
      <circle cx="25" cy="25" r="20" fill="none" stroke="#10b981" stroke-width="6" stroke-dasharray="31 126" opacity="0.8"/>
      <circle cx="25" cy="25" r="20" fill="none" stroke="#8b5cf6" stroke-width="6" stroke-dasharray="25 126" stroke-dashoffset="-31" opacity="0.8"/>
      <circle cx="25" cy="25" r="20" fill="none" stroke="#f59e0b" stroke-width="6" stroke-dasharray="20 126" stroke-dashoffset="-56" opacity="0.8"/>
    </g>
    
    <!-- Bottom Analytics -->
    <g transform="translate(400, 600)">
      <!-- Line Chart -->
      <path d="M 0 30 Q 20 25 40 28 Q 60 20 80 25 Q 100 15 120 20 Q 140 25 160 22" 
            stroke="#10b981" stroke-width="3" fill="none" opacity="0.8"/>
      <circle cx="0" cy="30" r="3" fill="#10b981" opacity="0.8"/>
      <circle cx="40" cy="28" r="3" fill="#10b981" opacity="0.8"/>
      <circle cx="80" cy="25" r="3" fill="#10b981" opacity="0.8"/>
      <circle cx="120" cy="20" r="3" fill="#10b981" opacity="0.8"/>
      <circle cx="160" cy="22" r="3" fill="#10b981" opacity="0.8"/>
    </g>
  </g>
  
  <!-- Scattered Document Icons -->
  <g opacity="0.2">
    <!-- Top Left -->
    <g transform="translate(150, 100) rotate(-15)">
      <rect x="0" y="0" width="20" height="25" fill="#64748b" rx="2"/>
      <rect x="3" y="5" width="14" height="1" fill="white" rx="0.5"/>
      <rect x="3" y="8" width="10" height="1" fill="white" rx="0.5"/>
      <rect x="3" y="11" width="12" height="1" fill="white" rx="0.5"/>
    </g>
    
    <!-- Top Right -->
    <g transform="translate(1750, 120) rotate(12)">
      <rect x="0" y="0" width="20" height="25" fill="#64748b" rx="2"/>
      <rect x="3" y="5" width="14" height="1" fill="white" rx="0.5"/>
      <rect x="3" y="8" width="10" height="1" fill="white" rx="0.5"/>
      <rect x="3" y="11" width="12" height="1" fill="white" rx="0.5"/>
    </g>
    
    <!-- Bottom Left -->
    <g transform="translate(100, 650) rotate(-8)">
      <rect x="0" y="0" width="20" height="25" fill="#64748b" rx="2"/>
      <rect x="3" y="5" width="14" height="1" fill="white" rx="0.5"/>
      <rect x="3" y="8" width="10" height="1" fill="white" rx="0.5"/>
      <rect x="3" y="11" width="12" height="1" fill="white" rx="0.5"/>
    </g>
    
    <!-- Bottom Right -->
    <g transform="translate(1800, 680) rotate(10)">
      <rect x="0" y="0" width="20" height="25" fill="#64748b" rx="2"/>
      <rect x="3" y="5" width="14" height="1" fill="white" rx="0.5"/>
      <rect x="3" y="8" width="10" height="1" fill="white" rx="0.5"/>
      <rect x="3" y="11" width="12" height="1" fill="white" rx="0.5"/>
    </g>
  </g>
  
  <!-- Geometric Accent Shapes -->
  <g opacity="0.15">
    <polygon points="300,50 350,100 300,150 250,100" fill="#3b82f6"/>
    <polygon points="1620,500 1670,550 1620,600 1570,550" fill="#10b981"/>
    <circle cx="800" cy="100" r="15" fill="#8b5cf6"/>
    <circle cx="1200" cy="700" r="12" fill="#f59e0b"/>
  </g>
</svg>